<?xml version="1.0" encoding="UTF-8" standalone="no"?>
<svg
   fill="none"
   viewBox="0 0 24 24"
   stroke-width="1.5"
   stroke="currentColor"
   class="size-6"
   version="1.1"
   id="svg1"
   sodipodi:docname="favicon.svg"
   inkscape:version="1.3 (0e150ed6c4, 2023-07-21)"
   xmlns:inkscape="http://www.inkscape.org/namespaces/inkscape"
   xmlns:sodipodi="http://sodipodi.sourceforge.net/DTD/sodipodi-0.dtd"
   xmlns="http://www.w3.org/2000/svg"
   xmlns:svg="http://www.w3.org/2000/svg">
  <defs
     id="defs1" />
  <sodipodi:namedview
     id="namedview1"
     pagecolor="#ffffff"
     bordercolor="#000000"
     borderopacity="0.25"
     inkscape:showpageshadow="2"
     inkscape:pageopacity="0.0"
     inkscape:pagecheckerboard="0"
     inkscape:deskcolor="#d1d1d1"
     showgrid="false"
     inkscape:zoom="22.627417"
     inkscape:cx="17.36831"
     inkscape:cy="15.932"
     inkscape:window-width="1920"
     inkscape:window-height="1009"
     inkscape:window-x="2248"
     inkscape:window-y="-8"
     inkscape:window-maximized="1"
     inkscape:current-layer="svg1" />
  <circle
     style="fill:#2f4054;stroke-width:32.0013;stroke-dashoffset:298.027;stroke:none;fill-opacity:1"
     id="path2"
     cx="12"
     cy="12"
     r="12" />
  <path
     id="rect3"
     style="fill:#ffcb00;fill-opacity:0.496614;stroke:none;stroke-width:35.6414;stroke-dashoffset:298.027;stroke-opacity:1"
     d="M 5.0996094,5.4003906 C 4.9403435,5.4010356 4.7878681,5.4649811 4.6757812,5.578125 4.2306977,5.7281888 3.9274066,6.0314789 3.7773438,6.4765625 h -0.00195 C 3.6630077,6.5889694 3.5997384,6.7414048 3.5996094,6.9003906 v 1.1992188 1.8007812 1.1992184 1.800782 1.199218 1.800782 1.199218 c 1.28e-4,0.158985 0.063349,0.311421 0.1757812,0.423829 h 0.00195 c 0.1499468,0.444963 0.4536079,0.748184 0.8984374,0.898437 v 0.002 c 0.1124079,0.112432 0.2648433,0.175654 0.4238282,0.175781 h 1.2011718 1.7988282 7.8007816 1.798828 1.201172 c 0.750132,-1e-6 1.5,-0.742333 1.5,-1.5 V 15.900391 14.099609 12.900391 11.099609 9.9003906 8.0996094 6.9003906 c 1e-6,-0.7423782 -0.749871,-1.484759 -1.5,-1.5 H 17.699219 15.900391 8.0996094 6.3007812 Z M 16.675781,5.8925781 H 19.8125 V 18.107422 H 7.3242188 L 7.9140625,17.337891 C 7.8445777,17.283939 7.8007812,17.199546 7.8007812,17.099609 v -1.199218 -1.800782 -1.199218 c 0,-0.172163 0.1266663,-0.300782 0.2988282,-0.300782 h 3.4414066 l 0.917968,-1.199218 H 8.0996094 c -0.1727919,0 -0.2988281,-0.12799 -0.2988282,-0.300782 V 9.9003906 8.0996094 6.9003906 c 0,-0.1721618 0.1266663,-0.3007812 0.2988282,-0.3007812 h 7.8007816 c 0.07222,0 0.135328,0.023508 0.185547,0.0625 z m -0.589843,0.7695313 -3.626954,4.7382816 h 3.441407 c 0.172161,0 0.298828,-0.128619 0.298828,-0.300782 V 9.9003906 8.0996094 6.9003906 c 0,-0.099936 -0.0438,-0.1843295 -0.113281,-0.2382812 z m -4.544922,5.9374996 -3.6269535,4.738282 c 0.050218,0.03899 0.1133211,0.0625 0.1855469,0.0625 h 7.8007816 c 0.172161,0 0.298828,-0.128619 0.298828,-0.300782 v -1.199218 -1.800782 -1.199218 c 0,-0.172163 -0.126667,-0.300782 -0.298828,-0.300782 z M 5.0996094,6.5996094 h 1.2011718 c 0.1721619,0 0.2988282,0.1286194 0.2988282,0.3007812 v 1.1992188 c 0,0.1721618 -0.1266663,0.3007812 -0.2988282,0.3007812 H 5.0996094 c -0.1721619,0 -0.2988282,-0.1286194 -0.2988282,-0.3007812 V 6.9003906 c 0,-0.1721618 0.1266663,-0.3007812 0.2988282,-0.3007812 z m 0,3 h 1.2011718 c 0.1721619,0 0.2988282,0.1286194 0.2988282,0.3007812 v 1.1992184 c 0,0.172163 -0.1266663,0.300782 -0.2988282,0.300782 H 5.0996094 c -0.1721619,0 -0.2988282,-0.128619 -0.2988282,-0.300782 V 9.9003906 c 0,-0.1721618 0.1266663,-0.3007812 0.2988282,-0.3007812 z m 0,2.9999996 h 1.2011718 c 0.1721619,0 0.2988282,0.128619 0.2988282,0.300782 v 1.199218 c 0,0.172163 -0.1266663,0.300782 -0.2988282,0.300782 H 5.0996094 c -0.1721619,0 -0.2988282,-0.128619 -0.2988282,-0.300782 v -1.199218 c 0,-0.172163 0.1266663,-0.300782 0.2988282,-0.300782 z m 0,3 h 1.2011718 c 0.1721619,0 0.2988282,0.128619 0.2988282,0.300782 v 1.199218 c 0,0.172163 -0.1266663,0.300782 -0.2988282,0.300782 H 5.0996094 c -0.1727919,0 -0.2988282,-0.12799 -0.2988282,-0.300782 v -1.199218 c 0,-0.172163 0.1266663,-0.300782 0.2988282,-0.300782 z"
     sodipodi:nodetypes="cccccccccccccccccccccssccccccscccccccccccsccssccssccsssccccssccscccsssccsscssssssssssssssssssssssssssssssssssss" />
  <path
     style="color:#000000;fill:#ffcb00;fill-opacity:1;stroke:none;stroke-linecap:round;stroke-linejoin:round;-inkscape-stroke:none"
     d="M 5.0996094,5.4003906 C 4.9403433,5.4010356 4.7878684,5.4649767 4.6757812,5.578125 4.2306973,5.7281887 3.9274074,6.0314786 3.7773438,6.4765625 c -8.21e-5,2.434e-4 -0.00187,-2.434e-4 -0.00195,0 C 3.662961,6.5889696 3.5997378,6.7414048 3.5996094,6.9003906 v 1.1992188 1.8007812 1.1992184 1.800782 1.199218 1.800782 1.199218 c 1.276e-4,0.158985 0.06335,0.31142 0.1757812,0.423828 6.5e-4,10e-7 0.0013,10e-7 0.00195,0 0.1499474,0.444964 0.4536076,0.748185 0.8984374,0.898438 -1.1e-6,6.67e-4 -1.1e-6,0.0013 0,0.002 0.1124076,0.112432 0.2648429,0.175654 0.4238282,0.175781 h 1.2011718 1.7988282 7.8007818 1.798828 1.201172 c 0.750133,-1e-6 1.5,-0.74238 1.5,-1.500047 V 15.900391 14.099609 12.900391 11.099609 9.9003906 8.0996094 6.9003906 c 1e-6,-0.7423794 -0.749867,-1.4847588 -1.499997,-1.5 H 17.699219 15.900391 8.0996094 6.3007812 Z m 0,1.1992188 h 1.2011718 c 0.1721622,0 0.2988282,0.1286191 0.2988282,0.3007812 v 1.1992188 c 0,0.1721621 -0.126666,0.3007812 -0.2988282,0.3007812 H 5.0996094 c -0.1721622,0 -0.2988282,-0.1286191 -0.2988282,-0.3007812 V 6.9003906 c 0,-0.1721621 0.126666,-0.3007812 0.2988282,-0.3007812 z m 3,0 h 7.8007816 c 0.172162,0 0.298828,0.1286191 0.298828,0.3007812 v 1.1992188 1.8007812 1.1992184 c 0,0.172163 -0.126666,0.300782 -0.298828,0.300782 H 8.0996094 c -0.172792,0 -0.2988281,-0.12799 -0.2988282,-0.300782 V 9.9003906 8.0996094 6.9003906 c 0,-0.1721621 0.126666,-0.3007812 0.2988282,-0.3007812 z m 9.5996096,0 h 1.201172 c 0.172162,0 0.298828,0.1286191 0.298828,0.3007812 v 1.1992188 c 0,0.1721621 -0.126666,0.3007812 -0.298828,0.3007812 h -1.201172 c -0.172792,0 -0.298828,-0.1279892 -0.298828,-0.3007812 V 6.9003906 c 0,-0.1721621 0.126666,-0.3007812 0.298828,-0.3007812 z m -12.5996096,3 h 1.2011718 c 0.1721622,0 0.2988282,0.1286191 0.2988282,0.3007812 v 1.1992184 c 0,0.172163 -0.126666,0.300782 -0.2988282,0.300782 H 5.0996094 c -0.1721622,0 -0.2988282,-0.128619 -0.2988282,-0.300782 V 9.9003906 c 0,-0.1721621 0.126666,-0.3007812 0.2988282,-0.3007812 z m 12.5996096,0 h 1.201172 c 0.172162,0 0.298828,0.1286191 0.298828,0.3007812 v 1.1992184 c 0,0.172163 -0.126666,0.300782 -0.298828,0.300782 h -1.201172 c -0.172162,0 -0.298828,-0.128619 -0.298828,-0.300782 V 9.9003906 c 0,-0.1721621 0.126666,-0.3007812 0.298828,-0.3007812 z M 5.0996094,12.599609 h 1.2011718 c 0.1721622,0 0.2988282,0.128619 0.2988282,0.300782 v 1.199218 c 0,0.172163 -0.126666,0.300782 -0.2988282,0.300782 H 5.0996094 c -0.1721622,0 -0.2988282,-0.128619 -0.2988282,-0.300782 v -1.199218 c 0,-0.172163 0.126666,-0.300782 0.2988282,-0.300782 z m 3,0 h 7.8007816 c 0.172162,0 0.298828,0.128619 0.298828,0.300782 v 1.199218 1.800782 1.199218 c 0,0.172163 -0.126666,0.300782 -0.298828,0.300782 H 8.0996094 c -0.1721622,0 -0.2988282,-0.128619 -0.2988282,-0.300782 v -1.199218 -1.800782 -1.199218 c 0,-0.172163 0.126666,-0.300782 0.2988282,-0.300782 z m 9.5996096,0 h 1.201172 c 0.172162,0 0.298828,0.128619 0.298828,0.300782 v 1.199218 c 0,0.172163 -0.126666,0.300782 -0.298828,0.300782 h -1.201172 c -0.172162,0 -0.298828,-0.128619 -0.298828,-0.300782 v -1.199218 c 0,-0.172163 0.126666,-0.300782 0.298828,-0.300782 z m -12.5996096,3 h 1.2011718 c 0.1721622,0 0.2988282,0.128619 0.2988282,0.300782 v 1.199218 c 0,0.172163 -0.126666,0.300782 -0.2988282,0.300782 H 5.0996094 c -0.172792,0 -0.2988282,-0.12799 -0.2988282,-0.300782 v -1.199218 c 0,-0.172163 0.126666,-0.300782 0.2988282,-0.300782 z m 12.5996096,0 h 1.201172 c 0.172162,0 0.298828,0.128619 0.298828,0.300782 v 1.199218 c 0,0.172163 -0.126666,0.300782 -0.298828,0.300782 h -1.201172 c -0.172792,0 -0.298828,-0.12799 -0.298828,-0.300782 v -1.199218 c 0,-0.172163 0.126666,-0.300782 0.298828,-0.300782 z"
     id="path1"
     sodipodi:nodetypes="ccscccccccccccccccccccscccccccccccccssssssssssssccssssccsssssssssssssssssssssssssssssssssssssssssccssssccsssssssssssssssssssssssssssss" />
  <path
     id="path1-9"
     style="color:#000000;fill:#fefefe;stroke:none;stroke-linecap:round;stroke-linejoin:round;-inkscape-stroke:none"
     d="m 5.0996094,5.4003906 c -0.7498671,0 -1.4997342,0.7423795 -1.5,1.5 v 1.1992188 1.8007812 1.1992184 1.800782 1.199218 1.800782 1.199218 c 0,0.757667 0.7498669,1.500046 1.4999968,1.500047 H 6.300778 6.9472624 l 0.9648438,-1.261718 c -0.068801,-0.054 -0.1113281,-0.138901 -0.1113282,-0.238282 v -1.199218 -1.800782 -1.199218 c 0,-0.172163 0.1266653,-0.300782 0.2988282,-0.300782 h 3.4414068 l 0.917968,-1.199218 H 8.0996094 c -0.1727919,0 -0.2988281,-0.12799 -0.2988282,-0.300782 V 9.9003906 8.0996094 6.9003906 c 0,-0.1721618 0.1266653,-0.3007812 0.2988282,-0.3007812 h 7.8007816 c 0.07278,0 0.137113,0.022954 0.1875,0.0625 L 17.052734,5.4003906 H 15.900391 8.0996094 6.3007812 Z m 0,1.1992188 h 1.2011718 c 0.1721629,0 0.2988282,0.1286194 0.2988282,0.3007812 v 1.1992188 c 0,0.1721618 -0.1266653,0.3007812 -0.2988282,0.3007812 H 5.0996094 c -0.1721629,0 -0.2988282,-0.1286194 -0.2988282,-0.3007812 V 6.9003906 c 0,-0.1721618 0.1266653,-0.3007812 0.2988282,-0.3007812 z m 0,3 h 1.2011718 c 0.1721629,0 0.2988282,0.1286194 0.2988282,0.3007812 v 1.1992184 c 0,0.172163 -0.1266653,0.300782 -0.2988282,0.300782 H 5.0996094 c -0.1721629,0 -0.2988282,-0.128619 -0.2988282,-0.300782 V 9.9003906 c 0,-0.1721618 0.1266653,-0.3007812 0.2988282,-0.3007812 z m 0,2.9999996 h 1.2011718 c 0.1721629,0 0.2988282,0.128619 0.2988282,0.300782 v 1.199218 c 0,0.172163 -0.1266653,0.300782 -0.2988282,0.300782 H 5.0996094 c -0.1721629,0 -0.2988282,-0.128619 -0.2988282,-0.300782 v -1.199218 c 0,-0.172163 0.1266653,-0.300782 0.2988282,-0.300782 z m 0,3 h 1.2011718 c 0.1721629,0 0.2988282,0.128619 0.2988282,0.300782 v 1.199218 c 0,0.172163 -0.1266653,0.300782 -0.2988282,0.300782 H 5.0996094 c -0.1727919,0 -0.2988282,-0.12799 -0.2988282,-0.300782 v -1.199218 c 0,-0.172163 0.1266653,-0.300782 0.2988282,-0.300782 z"
     sodipodi:nodetypes="cccccccccccccsccssccssccsssccccccssssssssssssssssssssssssssssssssssss" />
  <path
     id="path1-9-9"
     style="color:#000000;fill:#fefefe;fill-opacity:0.503386;stroke:none;stroke-linecap:round;stroke-linejoin:round;-inkscape-stroke:none"
     d="m 5.0996094,5.4003906 c -0.7498664,0 -1.4997342,0.7423803 -1.5,1.5 v 1.1992188 1.8007812 1.1992184 1.800782 1.199218 1.800782 1.199218 c 0,0.757667 0.7498708,1.499999 1.5,1.5 H 6.3007812 6.9472656 L 7.3242188,18.107422 H 4.1875 V 5.8925781 H 16.675781 L 17.052734,5.4003906 H 15.900391 8.0996094 6.3007812 Z m 3,1.1992188 c -0.1721628,0 -0.2988282,0.1286196 -0.2988282,0.3007812 v 1.1992188 1.8007812 1.1992184 c 10e-8,0.172792 0.1260364,0.300782 0.2988282,0.300782 h 4.3593746 l 3.628907,-4.7382816 c -0.05039,-0.039546 -0.11472,-0.0625 -0.1875,-0.0625 z m 0,5.9999996 c -0.1721628,0 -0.2988282,0.128619 -0.2988282,0.300782 v 1.199218 1.800782 1.199218 c 10e-8,0.09938 0.042527,0.184282 0.1113282,0.238282 l 3.6289066,-4.738282 z"
     sodipodi:nodetypes="scccccccssccccccccccsssccssccssssccsccs" />
</svg>
