<?xml version="1.0" encoding="UTF-8" standalone="no"?>
<svg
   fill="none"
   viewBox="0 0 24 24"
   stroke-width="1.5"
   stroke="currentColor"
   class="size-6"
   version="1.1"
   id="svg1"
   sodipodi:docname="favicon.svg"
   inkscape:version="1.3 (0e150ed6c4, 2023-07-21)"
   xmlns:inkscape="http://www.inkscape.org/namespaces/inkscape"
   xmlns:sodipodi="http://sodipodi.sourceforge.net/DTD/sodipodi-0.dtd"
   xmlns="http://www.w3.org/2000/svg"
   xmlns:svg="http://www.w3.org/2000/svg">
  <defs
     id="defs1" />
  <sodipodi:namedview
     id="namedview1"
     pagecolor="#ffffff"
     bordercolor="#000000"
     borderopacity="0.25"
     inkscape:showpageshadow="2"
     inkscape:pageopacity="0.0"
     inkscape:pagecheckerboard="0"
     inkscape:deskcolor="#d1d1d1"
     showgrid="false"
     inkscape:zoom="22.627417"
     inkscape:cx="10.208854"
     inkscape:cy="14.252621"
     inkscape:window-width="1920"
     inkscape:window-height="1009"
     inkscape:window-x="2248"
     inkscape:window-y="-8"
     inkscape:window-maximized="1"
     inkscape:current-layer="svg1" />
  <g
     id="g3"
     transform="translate(0,-2.32e-5)">
    <path
       id="rect3"
       style="fill:#ffcb00;fill-opacity:0.496614;stroke:none;stroke-width:44.5518;stroke-dashoffset:298.027;stroke-opacity:1"
       d="m 18.315917,3.7504824 -0.471191,0.6152344 h 3.920899 V 19.634272 H 6.1552734 l -0.4711915,0.615233 h 1.4404298 9.7509773 2.248535 1.501465 c 0.937663,-10e-7 1.875,-0.927916 1.875,-1.875 V 16.875483 14.624505 13.125483 10.874505 9.3754824 7.1245059 5.6254824 c 10e-7,-0.9279717 -0.93734,-1.8559487 -1.875,-1.875 H 19.124024 Z M 17.107422,5.3276309 12.57373,11.250483 h 4.301759 c 0.2152,0 0.373535,-0.160774 0.373535,-0.375978 V 9.3754824 7.1245059 5.6254824 c 0,-0.1249198 -0.05475,-0.230412 -0.141602,-0.2978515 z M 11.42627,12.749505 6.8925781,18.672358 c 0.062772,0.04874 0.1416513,0.07813 0.2319336,0.07813 h 9.7509773 c 0.2152,0 0.373535,-0.160774 0.373535,-0.375978 V 16.875488 14.62451 13.125488 c 0,-0.215204 -0.158335,-0.375978 -0.373535,-0.375978 z" />
    <path
       id="path1"
       style="color:#000000;fill:#ffcb00;fill-opacity:1;stroke:none;stroke-width:1.875;stroke-linecap:round;stroke-linejoin:round;-inkscape-stroke:none"
       d="m 18.315917,3.7504824 -1.208495,1.5771485 c 0.08685,0.06744 0.141602,0.1729314 0.141602,0.2978515 v 1.4990235 2.2509765 1.4990226 c 0,0.215204 -0.158334,0.375978 -0.373535,0.375978 H 12.57373 l -1.14746,1.499022 h 5.449219 c 0.215201,0 0.373535,0.160774 0.373535,0.375978 v 1.499022 2.250978 1.499022 c 0,0.215204 -0.158334,0.375978 -0.373535,0.375978 H 7.1245117 c -0.090282,0 -0.169161,-0.02938 -0.2319336,-0.07813 L 5.6840819,20.2495 h 1.4404298 9.7509773 2.248535 1.501465 c 0.937665,-1e-6 1.875,-0.927916 1.875,-1.875 V 16.875483 14.624505 13.125483 10.874505 9.3754824 7.1245059 5.6254824 c 10e-7,-0.9279732 -0.937339,-1.8559485 -1.875,-1.875 h -1.501465 z m 0.808107,1.4990235 h 1.501465 c 0.215201,0 0.373535,0.1607742 0.373535,0.3759765 v 1.4990235 c 0,0.2152024 -0.158334,0.3759765 -0.373535,0.3759765 h -1.501465 c -0.21599,0 -0.373535,-0.1599867 -0.373535,-0.3759765 V 5.6254824 c 0,-0.2152023 0.158332,-0.3759765 0.373535,-0.3759765 z m 0,3.75 h 1.501465 c 0.215201,0 0.373535,0.1607742 0.373535,0.3759765 v 1.4990226 c 0,0.215204 -0.158334,0.375978 -0.373535,0.375978 h -1.501465 c -0.215203,0 -0.373535,-0.160774 -0.373535,-0.375978 V 9.3754824 c 0,-0.2152023 0.158332,-0.3759765 0.373535,-0.3759765 z m 0,3.7499991 h 1.501465 c 0.215201,0 0.373535,0.160774 0.373535,0.375978 v 1.499022 c 0,0.215204 -0.158334,0.375978 -0.373535,0.375978 h -1.501465 c -0.215203,0 -0.373535,-0.160774 -0.373535,-0.375978 v -1.499022 c 0,-0.215204 0.158332,-0.375978 0.373535,-0.375978 z m 0,3.75 h 1.501465 c 0.215201,0 0.373535,0.160774 0.373535,0.375978 v 1.499022 c 0,0.215204 -0.158334,0.375978 -0.373535,0.375978 h -1.501465 c -0.21599,0 -0.373535,-0.159988 -0.373535,-0.375978 v -1.499022 c 0,-0.215204 0.158332,-0.375978 0.373535,-0.375978 z" />
    <path
       id="path1-9"
       style="color:#000000;fill:#fefefe;stroke:none;stroke-width:1.875;stroke-linecap:round;stroke-linejoin:round;-inkscape-stroke:none"
       d="m 3.3745117,3.7504824 c -0.9373339,0 -1.8746678,0.9279744 -1.875,1.875 v 1.4990235 2.2509765 1.4990226 2.250978 1.499022 2.250978 1.499022 c 0,0.947084 0.9373336,1.875058 1.874996,1.875059 H 4.8759724 5.6840779 L 6.8901327,18.672417 C 6.8041314,18.604917 6.7509726,18.49879 6.7509724,18.374564 v -1.499022 -2.250978 -1.499022 c 0,-0.215204 0.1583317,-0.375978 0.3735353,-0.375978 h 4.3017583 l 1.14746,-1.499022 H 7.1245117 c -0.2159899,0 -0.3735351,-0.159988 -0.3735353,-0.375978 V 9.3754824 7.1245059 5.6254824 c 0,-0.2152022 0.1583317,-0.3759765 0.3735353,-0.3759765 h 9.7509773 c 0.09097,0 0.171391,0.028693 0.234375,0.078125 L 18.315917,3.7504824 H 16.875489 7.1245117 4.8759764 Z m 0,1.4990235 h 1.5014647 c 0.2152037,0 0.3735353,0.1607743 0.3735353,0.3759765 v 1.4990235 c 0,0.2152023 -0.1583316,0.3759765 -0.3735353,0.3759765 H 3.3745117 c -0.2152036,0 -0.3735353,-0.1607742 -0.3735353,-0.3759765 V 5.6254824 c 0,-0.2152022 0.1583317,-0.3759765 0.3735353,-0.3759765 z m 0,3.75 h 1.5014647 c 0.2152037,0 0.3735353,0.1607743 0.3735353,0.3759765 v 1.4990226 c 0,0.215204 -0.1583316,0.375978 -0.3735353,0.375978 H 3.3745117 c -0.2152036,0 -0.3735353,-0.160774 -0.3735353,-0.375978 V 9.3754824 c 0,-0.2152022 0.1583317,-0.3759765 0.3735353,-0.3759765 z m 0,3.7499991 h 1.5014647 c 0.2152037,0 0.3735353,0.160774 0.3735353,0.375978 v 1.499022 c 0,0.215204 -0.1583316,0.375978 -0.3735353,0.375978 H 3.3745117 c -0.2152036,0 -0.3735353,-0.160774 -0.3735353,-0.375978 v -1.499022 c 0,-0.215204 0.1583317,-0.375978 0.3735353,-0.375978 z m 0,3.75 h 1.5014647 c 0.2152037,0 0.3735353,0.160774 0.3735353,0.375978 v 1.499022 c 0,0.215204 -0.1583316,0.375978 -0.3735353,0.375978 H 3.3745117 c -0.2159899,0 -0.3735353,-0.159988 -0.3735353,-0.375978 v -1.499022 c 0,-0.215204 0.1583317,-0.375978 0.3735353,-0.375978 z"
       sodipodi:nodetypes="cccccccccccccsccssccssccsssccccccssssssssssssssssssssssssssssssssssss" />
    <path
       id="path1-9-9"
       style="color:#000000;fill:#fefefe;fill-opacity:0.503386;stroke:none;stroke-width:1.875;stroke-linecap:round;stroke-linejoin:round;-inkscape-stroke:none"
       d="m 3.3745117,3.7504824 c -0.937333,0 -1.8746678,0.9279754 -1.875,1.875 v 1.4990235 2.2509765 1.4990226 2.250978 1.499022 2.250978 1.499022 c 0,0.947084 0.9373385,1.874999 1.875,1.875 H 4.8759764 5.6840819 L 6.1552734,19.634272 H 2.2343749 V 4.3657168 H 17.844726 L 18.315917,3.7504824 H 16.875489 7.1245117 4.8759764 Z m 3.75,1.4990235 c -0.2152035,0 -0.3735353,0.1607745 -0.3735353,0.3759765 v 1.4990235 2.2509765 1.4990226 c 2e-7,0.21599 0.1575455,0.375978 0.3735353,0.375978 H 12.57373 l 4.536134,-5.9228521 c -0.06299,-0.049432 -0.1434,-0.078125 -0.234375,-0.078125 z m 0,7.4999991 c -0.2152035,0 -0.3735353,0.160774 -0.3735353,0.375978 v 1.499022 2.250978 1.499022 c 2e-7,0.124225 0.053159,0.230353 0.1391603,0.297853 L 11.42627,12.749505 Z"
       sodipodi:nodetypes="scccccccssccccccccccsssccssccssssccsccs" />
  </g>
</svg>
